<?xml version="1.0" encoding="UTF-8"?>
<svg id="Lag_1" data-name="Lag 1" xmlns="http://www.w3.org/2000/svg" viewBox="0 0 781.67 1048.17">
  <defs>
    <style>
      .cls-1 {
        fill: #545453;
        stroke-width: 0px;
      }
    </style>
  </defs>
  <rect class="cls-1" x="498.37" y="40.17" width="151.3" height="21.91"/>
  <rect class="cls-1" x="519.76" width="106.7" height="36.78"/>
  <path class="cls-1" d="M715.83,673.82h-46.85v-13.62h-18.22v-29.35h-18.53v-21.13h-48.95V213.91h171.26v-20.61h-130.57v-21.13h157.7v-85.21h-27.13v-21.48h-227.48v21.48h-29.48v522.76h-197.96v21.13h-56.23v29.35h-25.19v24.65h-21.91v52.83h-71.67v33.65H42.11v-84.84H0v85.93h42.11v46.25h82.51v24.67h118.77v26.98h76.54v177.85h93.72v-33.65h-45.78v-81h47.15v-28.17h39.91v-35.02h38.54v64.37h47.15v113.48h92.35v-33.65h-44.41v-144.2h62.2v-27h18.22v-127.4h46.85v43.83h42.11v-85.93h-42.11ZM571.93,94.37h27.78v27.78h-27.78v-27.78Z"/>
</svg>